<svg xmlns="http://www.w3.org/2000/svg" viewBox="0 0 240 240"><g transform="translate(23 8) rotate(-9 120 170) scale(.9)"><g fill="#535b83" stroke="#c69ce9" stroke-width="3" stroke-linejoin="round" stroke-linecap="round"><path d="M120 28L157 52L147 103L172 126L185 217L133 200L115 218L70 207L57 128L84 104L76 54Z"/><path d="M115 30L123 68L108 105L136 143L114 181L121 215" stroke="#ffdda0" stroke-width="7"/><path d="M72 118L23 81L38 152L65 171M169 118L216 78L201 153L177 174"/></g></g><g transform="translate(240 0) scale(-1 1)" fill="none" stroke="#dec787" stroke-width="3" stroke-linecap="round" stroke-linejoin="round"><path d="M151 76L216 111L161 164L151 76M140 121L216 111"/><circle cx="151" cy="76" r="10" fill="#bdeefa"/><circle cx="216" cy="111" r="13" fill="#fff0b2"/><circle cx="161" cy="164" r="10" fill="#bdeefa"/></g></svg>