<svg xmlns="http://www.w3.org/2000/svg" viewBox="0 0 240 240"><g transform="translate(23 8) rotate(-9 120 170) scale(.9)"><g fill="#535b83" stroke="#c69ce9" stroke-width="3" stroke-linejoin="round" stroke-linecap="round"><path d="M41 64L80 106L119 38L158 106L200 64L178 179H61Z"/><path d="M61 181H178V208H62Z"/><path d="M119 93L142 129L119 161L98 129Z" fill="#ffe3a2"/><circle cx="42" cy="62" r="11"/><circle cx="120" cy="36" r="11"/><circle cx="200" cy="62" r="11"/></g></g><g transform="translate(240 0) scale(-1 1)" fill="none" stroke="#dec787" stroke-width="3" stroke-linecap="round" stroke-linejoin="round"><path d="M137 51Q215 85 222 161Q188 101 137 51Z" fill="#fff0b2"/><path d="M162 70L226 118M169 172L229 135"/></g></svg>