<svg xmlns="http://www.w3.org/2000/svg" viewBox="0 0 240 240"><g transform="translate(23 8) rotate(-9 120 170) scale(.9)"><g fill="#535b83" stroke="#c69ce9" stroke-width="2.5" stroke-linejoin="round" stroke-linecap="round">
      <path d="M170 132Q210 139 216 106Q227 149 192 168L173 154Z"/>
      <path d="M70 125Q116 115 151 121L176 141L183 174L199 217H177L155 180L129 172L107 177L91 216H66L72 176L61 147Z"/>
      <path d="M86 147L67 118L50 108L29 88L55 88L61 62L55 24L75 41L81 67L94 26L103 42L105 97L120 116L109 146Z" fill="#172f42"/>
      <path d="M65 39L72 70M96 41L93 76M58 92L72 88M37 94L53 98" fill="none" stroke="#e8c576"/>
      <path d="M69 116L111 112L119 125L83 140Z" fill="#d9b76e"/>
      <path d="M81 123L88 133M94 121L102 130M71 207H95M176 207H194M141 135L147 162L163 166" fill="none" stroke="#e8c576"/>
      <path d="M67 216V211M77 216V211M88 216V211M180 216V212M190 216V213" stroke="#e8c576"/>
    <g transform="translate(120 147) scale(0.65)" fill="none" stroke="#e8c576" stroke-width="3"><ellipse cx="0" cy="-9" rx="6" ry="8"/><path d="M0 -1V21M-10 6H10"/></g></g></g><g transform="translate(240 0) scale(-1 1)" fill="none" stroke="#dec787" stroke-width="3" stroke-linecap="round" stroke-linejoin="round"><path d="M154 59Q194 95 204 164M177 49Q213 91 223 149M133 79Q176 116 182 184" stroke-width="7"/><path d="M200 156l12 18-3-24M219 142l10 16-2-24"/></g></svg>