<svg xmlns="http://www.w3.org/2000/svg" viewBox="0 0 240 240"><g fill="#254c65" stroke="#dec787" stroke-width="3" stroke-linejoin="round" stroke-linecap="round"><path d="M76 111L54 109L37 131L53 145L78 130M164 111L182 89L178 61L200 61L205 104L162 149"/><rect x="75" y="102" width="90" height="91" rx="23"/><path d="M87 186L78 225H108L116 188M124 188L132 225H162L153 186"/><g transform="rotate(-4 120 105)"><rect x="78" y="40" width="84" height="71" rx="24"/><path d="M120 40V20M107 20H133"/><rect x="90" y="60" width="60" height="26" rx="10" fill="#101d37"/><path d="M99 71H111M129 71H141" stroke="#bdeefa"/></g><path d="M120 125L142 150L120 175L98 150Z" fill="#e8c576"/></g><g transform="translate(39 5) scale(.8)" fill="none" stroke="#bdeefa" stroke-width="3" stroke-linecap="round" stroke-linejoin="round"><path d="M186 37L152 115H185L164 193L225 93H191L218 37Z" fill="#bdeefa" stroke="#f9e6a2"/><path d="M133 60l-9-13M225 174l10 11"/></g></svg>